<?xml version="1.0" encoding="utf-8"?>
<!-- Generator: Adobe Illustrator 21.1.0, SVG Export Plug-In . SVG Version: 6.00 Build 0)  -->
<svg version="1.1" id="Laag_1" xmlns="http://www.w3.org/2000/svg" xmlns:xlink="http://www.w3.org/1999/xlink" x="0px" y="0px"
	 width="100%" height="100%" viewBox="0 0 30 30" style="enable-background:new 0 0 30 30;" xml:space="preserve">
<style type="text/css">
	.st0{fill:#FFFFFF;}
</style>
<title>somtoday-logo-wit</title>
<!-- <path class="st0" d="M40,20.8c-1,0-1.9-0.2-2.8-0.5c-0.9-0.3-1.7-0.7-2.4-1.3l1.1-1.9c0.6,0.5,1.3,0.8,2.1,1.1
	c0.6,0.3,1.3,0.4,2,0.4c0.5,0,1-0.1,1.4-0.3c0.3-0.2,0.5-0.6,0.5-1c0-0.4-0.2-0.8-0.6-0.9c-0.6-0.3-1.3-0.5-1.9-0.7
	c-0.8-0.2-1.4-0.4-1.9-0.6c-0.5-0.2-0.9-0.4-1.3-0.7c-0.3-0.2-0.5-0.5-0.7-0.8c-0.2-0.4-0.2-0.7-0.2-1.1c0-0.6,0.1-1.1,0.3-1.6
	c0.2-0.5,0.6-0.9,1-1.2c0.4-0.3,0.9-0.6,1.4-0.8c0.6-0.2,1.2-0.3,1.8-0.3c0.8,0,1.6,0.1,2.4,0.4c0.8,0.3,1.5,0.7,2.1,1.2L43,12.1
	c-0.5-0.4-1.1-0.7-1.7-1c-0.5-0.2-1.1-0.3-1.6-0.3c-0.4,0-0.9,0.1-1.3,0.3c-0.3,0.2-0.5,0.6-0.5,1c0,0.2,0,0.4,0.1,0.5
	c0.1,0.2,0.2,0.3,0.4,0.4c0.2,0.1,0.4,0.2,0.7,0.3c0.3,0.1,0.6,0.2,1.1,0.3c0.8,0.2,1.5,0.4,2,0.6c0.5,0.2,1,0.4,1.4,0.7
	c0.3,0.2,0.6,0.5,0.8,0.9c0.2,0.4,0.3,0.8,0.3,1.2c0,1-0.4,2-1.3,2.7C42.6,20.4,41.4,20.8,40,20.8z"/>
<path class="st0" d="M51.9,20.8c-0.9,0-1.7-0.2-2.5-0.5C48.7,20,48,19.5,47.5,19c-0.5-0.6-0.9-1.2-1.2-1.9c-0.3-0.7-0.4-1.5-0.4-2.3
	c0-0.8,0.1-1.6,0.4-2.3c0.3-0.7,0.7-1.4,1.2-1.9c0.5-0.6,1.2-1,1.9-1.3c0.8-0.3,1.7-0.5,2.5-0.5c0.9,0,1.7,0.2,2.5,0.5
	c1.4,0.6,2.5,1.8,3.1,3.2c0.3,0.7,0.4,1.5,0.4,2.3c0,0.8-0.1,1.6-0.4,2.3c-0.3,0.7-0.7,1.4-1.2,1.9c-0.5,0.6-1.2,1-1.9,1.3
	C53.7,20.6,52.8,20.8,51.9,20.8z M48.9,14.8c0,0.5,0.1,1,0.2,1.4c0.1,0.4,0.4,0.8,0.6,1.1c1,1.2,2.8,1.3,4,0.3
	c0.1-0.1,0.2-0.2,0.3-0.3c0.3-0.3,0.5-0.7,0.6-1.1c0.2-0.5,0.2-0.9,0.2-1.4c0-0.5-0.1-0.9-0.2-1.4c-0.1-0.4-0.4-0.8-0.6-1.1
	c-0.5-0.6-1.3-1-2.1-1c-0.4,0-0.8,0.1-1.2,0.3c-0.4,0.2-0.7,0.4-1,0.7c-0.3,0.3-0.5,0.7-0.6,1.1C49,13.8,48.9,14.3,48.9,14.8
	L48.9,14.8z"/>
<path class="st0" d="M77.9,20.5h-3V14c0-0.9-0.2-1.6-0.5-2c-0.3-0.4-0.8-0.7-1.3-0.6c-0.6,0-1.2,0.3-1.7,0.7
	c-0.5,0.5-0.9,1.1-1.1,1.8v6.7h-3V14c0-0.9-0.2-1.6-0.5-2c-0.3-0.4-0.8-0.7-1.3-0.6c-0.6,0-1.2,0.2-1.6,0.7
	c-0.5,0.5-0.9,1.1-1.1,1.7v6.8h-3V9h2.7v2.1c0.4-0.7,1-1.3,1.8-1.7C65.2,9,66,8.7,66.9,8.8c1,0,1.7,0.2,2.2,0.7
	c0.5,0.5,0.9,1.1,1,1.7c0.4-0.8,1-1.4,1.8-1.8c0.8-0.4,1.6-0.6,2.5-0.6c0.6,0,1.2,0.1,1.7,0.4c0.4,0.2,0.8,0.6,1.1,1
	c0.3,0.5,0.4,0.9,0.5,1.5c0.1,0.5,0.1,1.1,0.1,1.7L77.9,20.5z"/>
<path class="st0" d="M87.3,19.9c-0.5,0.2-1,0.4-1.5,0.5c-0.6,0.2-1.2,0.3-1.8,0.3c-0.4,0-0.8,0-1.2-0.2c-0.3-0.1-0.7-0.3-0.9-0.5
	c-0.3-0.2-0.5-0.5-0.7-0.9c-0.2-0.4-0.3-0.9-0.2-1.3v-6.6h-1.5V9H81V5.2h3V9h2.4v2.3H84v5.7c0,0.4,0.1,0.7,0.3,0.9
	c0.2,0.2,0.5,0.3,0.8,0.3c0.3,0,0.6-0.1,0.9-0.2c0.3-0.1,0.5-0.2,0.7-0.3L87.3,19.9z"/>
<path class="st0" d="M93.9,20.8c-0.9,0-1.7-0.2-2.5-0.5C90.6,20,90,19.5,89.4,19c-0.5-0.6-0.9-1.2-1.2-1.9c-0.3-0.7-0.4-1.5-0.4-2.3
	c0-0.8,0.1-1.6,0.4-2.3c0.3-0.7,0.7-1.4,1.2-1.9c0.5-0.6,1.2-1,1.9-1.3c0.8-0.3,1.7-0.5,2.5-0.5c0.9,0,1.7,0.2,2.5,0.5
	c0.7,0.3,1.4,0.8,1.9,1.3c0.5,0.6,0.9,1.2,1.2,1.9c0.3,0.7,0.4,1.5,0.4,2.3c0,0.8-0.1,1.6-0.4,2.3c-0.3,0.7-0.7,1.4-1.2,1.9
	c-0.5,0.6-1.2,1-1.9,1.3C95.6,20.6,94.8,20.8,93.9,20.8z M90.9,14.8c0,0.5,0.1,1,0.2,1.4c0.1,0.4,0.4,0.8,0.6,1.1
	c0.8,1,2.2,1.2,3.3,0.7c0.4-0.2,0.7-0.4,1-0.7c0.3-0.3,0.5-0.7,0.6-1.1c0.2-0.5,0.2-0.9,0.2-1.4c0-0.5-0.1-0.9-0.2-1.4
	c-0.1-0.4-0.4-0.8-0.6-1.1c-0.3-0.3-0.6-0.6-1-0.7c-0.4-0.2-0.8-0.3-1.2-0.3c-0.4,0-0.8,0.1-1.2,0.3c-0.4,0.2-0.7,0.4-1,0.7
	c-0.3,0.3-0.5,0.7-0.6,1.1C90.9,13.8,90.9,14.3,90.9,14.8z"/>
<path class="st0" d="M106.7,20.8c-1.5,0-2.9-0.6-3.9-1.7c-0.5-0.6-0.9-1.2-1.1-1.9c-0.3-0.8-0.4-1.6-0.4-2.4c0-0.8,0.1-1.6,0.4-2.3
	c0.2-0.7,0.6-1.3,1.1-1.9c0.4-0.5,1-1,1.6-1.3c0.6-0.3,1.4-0.5,2.1-0.5c0.8,0,1.6,0.2,2.3,0.6c0.7,0.4,1.2,0.9,1.6,1.6V4.4h3v12.7
	c0,0.2,0,0.5,0.2,0.7c0.1,0.2,0.3,0.2,0.5,0.2v2.5c-0.4,0.1-0.8,0.1-1.3,0.2c-0.5,0-0.9-0.1-1.3-0.4c-0.3-0.2-0.5-0.6-0.6-1
	l-0.1-0.7c-0.4,0.7-1,1.3-1.7,1.7C108.3,20.6,107.5,20.8,106.7,20.8z M107.5,18.2c0.3,0,0.6-0.1,0.9-0.1c0.3-0.1,0.6-0.2,0.8-0.4
	c0.2-0.2,0.5-0.4,0.7-0.6c0.2-0.2,0.4-0.5,0.5-0.8v-2.8c-0.1-0.3-0.3-0.6-0.5-0.9c-0.2-0.3-0.5-0.5-0.7-0.7
	c-0.3-0.2-0.6-0.4-0.9-0.5c-0.3-0.1-0.6-0.2-0.9-0.2c-0.4,0-0.8,0.1-1.2,0.3c-0.4,0.2-0.7,0.5-1,0.8c-0.3,0.3-0.5,0.7-0.6,1.1
	c-0.1,0.4-0.2,0.9-0.2,1.3c0,0.5,0.1,0.9,0.2,1.3c0.2,0.4,0.4,0.8,0.7,1.1c0.3,0.3,0.6,0.6,1,0.7C106.6,18.2,107,18.3,107.5,18.2
	L107.5,18.2z"/>
<path class="st0" d="M119.3,20.8c-0.5,0-1.1-0.1-1.6-0.3c-0.5-0.2-0.9-0.4-1.3-0.8c-0.3-0.3-0.6-0.7-0.8-1.2c-0.2-0.5-0.3-1-0.3-1.5
	c0-0.5,0.1-1,0.4-1.5c0.2-0.5,0.6-0.9,1-1.2c0.5-0.3,1-0.6,1.6-0.8c0.6-0.2,1.3-0.3,2-0.3c0.5,0,1,0,1.5,0.1
	c0.4,0.1,0.9,0.2,1.3,0.4v-0.7c0-0.8-0.2-1.4-0.6-1.8c-0.4-0.4-1.1-0.6-1.9-0.6c-0.6,0-1.2,0.1-1.8,0.3c-0.6,0.2-1.2,0.6-1.8,1
	l-0.9-1.9c1.4-1,3.1-1.5,4.8-1.5c1.7,0,3,0.4,3.9,1.2c0.9,0.8,1.4,2,1.4,3.5v3.6c0,0.2,0,0.5,0.2,0.7c0.1,0.1,0.3,0.2,0.5,0.2v2.5
	c-0.4,0.1-0.9,0.1-1.3,0.2c-0.5,0-0.9-0.1-1.3-0.4c-0.3-0.3-0.5-0.6-0.6-1l-0.1-0.6c-0.5,0.7-1.1,1.2-1.9,1.5
	C120.9,20.6,120.1,20.8,119.3,20.8z M120.1,18.6c0.5,0,1-0.1,1.4-0.3c0.4-0.1,0.8-0.4,1-0.7c0.3-0.2,0.5-0.5,0.5-0.8v-1.3
	c-0.4-0.1-0.8-0.2-1.1-0.3c-0.4-0.1-0.8-0.1-1.2-0.1c-0.7,0-1.3,0.2-1.9,0.5c-0.5,0.3-0.7,0.8-0.7,1.3c0,0.5,0.2,0.9,0.6,1.2
	C119.1,18.4,119.6,18.6,120.1,18.6z"/>
<path class="st0" d="M128.7,22.8c0.2,0.1,0.5,0.1,0.7,0.2c0.2,0,0.4,0,0.6,0.1c0.2,0,0.4,0,0.5-0.1c0.2-0.1,0.3-0.2,0.4-0.4
	c0.2-0.2,0.3-0.5,0.4-0.8c0.1-0.3,0.3-0.7,0.4-1.2L127.3,9h3l3.1,9l2.8-9h2.8l-4.8,13.9c-0.3,0.8-0.8,1.5-1.4,2
	c-0.7,0.5-1.6,0.8-2.5,0.8c-0.2,0-0.5,0-0.7-0.1c-0.3,0-0.5-0.1-0.8-0.2L128.7,22.8z"/> -->
<path class="st0" d="M27.5,11.5c0-0.5-0.4-0.9-0.9-0.9h-2.5c-0.5,0-0.9-0.4-0.9-0.9V6.4c0-0.5-0.4-0.9-0.9-0.9h-4.7
	c-0.5,0-0.9-0.4-0.9-0.9l0,0V0.9C16.9,0.4,16.5,0,16,0h-4.5c-0.5,0-0.9,0.4-0.9,0.9v3.8c0,0.5-0.4,0.9-0.9,0.9c0,0,0,0,0,0H5.1
	c-0.5,0-0.9,0.4-0.9,0.9v3.3c0,0.5-0.4,0.9-0.9,0.9H0.9C0.4,10.6,0,11,0,11.5c0,0,0,0,0,0v6.8c0,0.5,0.4,0.9,0.9,0.9c0,0,0,0,0,0
	h2.5c0.5,0,0.9,0.4,0.9,0.9v3.6c0,0.5,0.4,0.9,0.9,0.9c0,0,0,0,0,0h1.7c0.5,0,0.9,0.4,0.9,0.9v3.8C7.6,29.6,8,30,8.5,30H12
	c0.5,0,0.9-0.4,0.9-0.9c0,0,0,0,0,0v-3.8c0-0.5,0.4-0.9,0.9-0.9l0,0h0c0.5,0,0.9,0.4,0.9,0.9v3.8c0,0.5,0.4,0.9,0.9,0.9c0,0,0,0,0,0
	H19c0.5,0,0.9-0.4,0.9-0.9v-3.8c0-0.5,0.4-0.9,0.9-0.9h1.7c0.5,0,0.9-0.4,0.9-0.9c0,0,0,0,0,0V20c0-0.5,0.4-0.9,0.9-0.9h2.5
	c0.5,0,0.9-0.4,0.9-0.9c0,0,0,0,0,0V11.5z M22.5,16.1c-0.5,0.9-1.2,2.3-3.4,3.7c-2.2,1.5-5.7,1.6-7.1,1.5c-0.1,0-0.2-0.1-0.2-0.2
	l0-0.4c0-0.1,0.1-0.2,0.2-0.2c0,0,0,0,0.1,0c2.4,0,4.2-0.6,5.8-1.7c1.8-1.2,2.4-2.6,2.8-3.6c0.1-0.3,0.9-0.2,1.2-0.1
	C22.3,15.2,22.7,15.7,22.5,16.1L22.5,16.1z"/>
</svg>